<svg xmlns="http://www.w3.org/2000/svg" xmlns:xlink="http://www.w3.org/1999/xlink" width="500" zoomAndPan="magnify" viewBox="0 0 375 374.999991" height="500" preserveAspectRatio="xMidYMid meet" version="1.0"><defs><g/><clipPath id="02445fbd14"><path d="M 101.871094 74.191406 L 273.128906 74.191406 L 273.128906 245.449219 L 101.871094 245.449219 Z M 101.871094 74.191406 " clip-rule="nonzero"/></clipPath><clipPath id="026a954f07"><path d="M 187.5 74.191406 C 140.207031 74.191406 101.871094 112.53125 101.871094 159.820312 C 101.871094 207.113281 140.207031 245.449219 187.5 245.449219 C 234.792969 245.449219 273.128906 207.113281 273.128906 159.820312 C 273.128906 112.53125 234.792969 74.191406 187.5 74.191406 Z M 187.5 74.191406 " clip-rule="nonzero"/></clipPath><clipPath id="b5343a931e"><path d="M 128.78125 124.011719 L 230.78125 124.011719 L 230.78125 196 L 128.78125 196 Z M 128.78125 124.011719 " clip-rule="nonzero"/></clipPath><clipPath id="c23a2ef206"><path d="M 149 197 L 165 197 L 165 212.511719 L 149 212.511719 Z M 149 197 " clip-rule="nonzero"/></clipPath><clipPath id="69190403c5"><path d="M 207 197 L 223 197 L 223 212.511719 L 207 212.511719 Z M 207 197 " clip-rule="nonzero"/></clipPath></defs><g clip-path="url(#02445fbd14)"><g clip-path="url(#026a954f07)"><path fill="#38b6ff" d="M 101.871094 74.191406 L 273.128906 74.191406 L 273.128906 245.449219 L 101.871094 245.449219 Z M 101.871094 74.191406 " fill-opacity="1" fill-rule="nonzero"/></g></g><g clip-path="url(#b5343a931e)"><path fill="#d9d9d9" d="M 230.898438 138.058594 C 230.636719 136.804688 229.511719 135.785156 228.214844 135.769531 C 202.796875 135.757812 177.378906 135.765625 151.960938 135.773438 C 151.445312 135.773438 151.515625 135.769531 151.375 135.347656 C 150.945312 133.878906 150.492188 132.414062 150.0625 130.941406 C 148.976562 127.070312 145.421875 124.09375 141.347656 124.046875 C 140.132812 124.011719 138.914062 124.011719 137.699219 124.011719 C 135.882812 124.011719 134.066406 124.019531 132.25 124.011719 C 131.6875 124.011719 131.160156 124.128906 130.652344 124.363281 C 127.816406 125.714844 128.390625 129.902344 131.527344 130.46875 C 134.933594 130.65625 138.363281 130.46875 141.777344 130.53125 C 143.097656 130.546875 144.085938 131.417969 144.351562 132.6875 C 145.1875 135.464844 146.015625 138.238281 146.847656 141.015625 C 149.277344 149.121094 151.664062 157.238281 154.089844 165.34375 C 155.082031 168.59375 156.035156 171.855469 157.035156 175.101562 C 157.390625 176.25 157.945312 177.28125 158.707031 178.203125 C 158.941406 178.488281 159.171875 178.769531 159.40625 179.054688 C 159.4375 179.09375 159.429688 179.160156 159.394531 179.1875 C 155.140625 182.175781 151.925781 186.59375 150.226562 191.496094 C 149.847656 192.484375 149.761719 193.382812 150.34375 194.324219 C 150.910156 195.242188 151.722656 195.746094 152.8125 195.769531 C 164.832031 195.789062 176.847656 195.777344 188.867188 195.78125 C 200.648438 195.78125 212.433594 195.777344 224.21875 195.773438 C 225.089844 195.808594 225.980469 195.726562 226.671875 195.128906 C 228.847656 193.34375 227.25 190.113281 224.773438 190.089844 C 211.820312 190.042969 198.871094 190.085938 185.917969 190.074219 C 176.519531 190.0625 167.117188 190.082031 157.71875 190.082031 C 157.527344 190.054688 157.648438 189.847656 157.714844 189.726562 C 159.285156 186.476562 161.859375 183.71875 165.140625 182.171875 C 180.472656 182.179688 195.941406 182.210938 211.320312 182.175781 C 214.167969 182.132812 216.976562 180.753906 218.738281 178.511719 C 220.371094 176.492188 220.703125 173.839844 221.480469 171.433594 C 223.042969 165.992188 224.660156 160.5625 226.226562 155.121094 C 227.398438 150.953125 228.644531 146.804688 229.847656 142.644531 C 230.101562 141.78125 230.351562 140.917969 230.605469 140.054688 C 230.785156 139.402344 231.082031 138.742188 230.898438 138.058594 Z M 197.339844 153.640625 C 197.515625 150.011719 197.714844 146.382812 197.882812 142.753906 C 197.910156 142.269531 197.929688 142.289062 198.378906 142.289062 C 202.714844 142.316406 207.046875 142.269531 211.378906 142.300781 C 211.496094 142.304688 211.5625 142.363281 211.542969 142.496094 C 211.207031 144.601562 210.816406 146.699219 210.429688 148.796875 C 210.136719 150.4375 209.820312 152.074219 209.546875 153.714844 C 209.519531 153.878906 209.449219 153.933594 209.273438 153.929688 C 207.320312 153.890625 205.371094 153.921875 203.421875 153.914062 C 203.421875 153.90625 203.421875 153.902344 203.421875 153.898438 C 201.4375 153.902344 199.453125 153.953125 197.472656 153.925781 C 197.351562 153.898438 197.328125 153.746094 197.339844 153.640625 Z M 156.847656 153.792969 C 155.726562 150.132812 154.683594 146.453125 153.617188 142.777344 C 153.609375 142.652344 153.414062 142.328125 153.605469 142.289062 C 154.855469 142.277344 156.101562 142.289062 157.351562 142.285156 C 157.351562 142.285156 157.351562 142.289062 157.351562 142.289062 C 158.5 142.289062 159.648438 142.289062 160.796875 142.289062 C 161.273438 142.289062 161.261719 142.300781 161.332031 142.75 C 161.554688 144.09375 161.757812 145.445312 161.972656 146.792969 C 162.339844 149.074219 162.707031 151.359375 163.054688 153.644531 C 163.085938 153.890625 163.003906 153.933594 162.78125 153.925781 C 160.867188 153.929688 158.953125 153.898438 157.039062 153.925781 C 156.953125 153.925781 156.878906 153.882812 156.847656 153.792969 Z M 160.363281 165.089844 C 160.253906 165.085938 160.171875 165.046875 160.132812 164.9375 C 160.054688 164.714844 159.96875 164.5 159.902344 164.277344 C 159.253906 162.039062 158.574219 159.808594 157.945312 157.566406 C 157.929688 157.484375 157.992188 157.40625 158.085938 157.402344 C 158.984375 157.382812 159.882812 157.398438 160.785156 157.394531 C 161.683594 157.402344 162.582031 157.375 163.480469 157.40625 C 163.742188 157.425781 163.675781 158 163.742188 158.207031 C 164.082031 160.394531 164.417969 162.582031 164.742188 164.769531 C 164.75 164.871094 164.789062 165.042969 164.65625 165.070312 C 163.230469 165.128906 161.792969 165.078125 160.363281 165.089844 Z M 166.351562 176.5 C 162.308594 175.582031 162.371094 172.234375 161.3125 168.9375 C 161.300781 168.855469 161.238281 168.722656 161.339844 168.675781 C 161.980469 168.609375 162.636719 168.667969 163.28125 168.648438 C 163.910156 168.652344 164.546875 168.640625 165.175781 168.660156 C 165.261719 168.664062 165.335938 168.726562 165.355469 168.808594 C 165.605469 170.078125 165.800781 171.363281 165.988281 172.644531 C 166.160156 173.796875 166.382812 174.9375 166.546875 176.089844 C 166.5625 176.265625 166.640625 176.59375 166.351562 176.5 Z M 166.476562 153.578125 C 165.945312 149.855469 165.304688 146.144531 164.808594 142.417969 C 164.863281 142.230469 165.09375 142.3125 165.242188 142.292969 C 167.273438 142.292969 169.304688 142.300781 171.335938 142.296875 C 171.335938 142.292969 171.335938 142.292969 171.335938 142.289062 C 173.46875 142.300781 175.601562 142.265625 177.734375 142.304688 C 177.867188 142.316406 177.886719 142.46875 177.890625 142.578125 C 177.917969 142.992188 177.945312 143.410156 177.964844 143.824219 C 178.125 147.054688 178.238281 150.28125 178.367188 153.507812 C 178.347656 153.632812 178.414062 153.867188 178.257812 153.90625 C 174.398438 153.945312 170.527344 153.9375 166.667969 153.894531 C 166.519531 153.878906 166.5 153.699219 166.476562 153.578125 Z M 168.253906 164.917969 C 168.011719 163.605469 167.839844 162.285156 167.632812 160.96875 C 167.480469 159.980469 167.320312 158.996094 167.183594 158.003906 C 167.085938 157.324219 166.980469 157.386719 167.699219 157.386719 C 169.398438 157.386719 171.097656 157.386719 172.800781 157.386719 C 172.800781 157.390625 172.800781 157.394531 172.800781 157.398438 C 174.652344 157.40625 176.5 157.375 178.351562 157.414062 C 178.507812 157.441406 178.5 157.617188 178.507812 157.738281 C 178.527344 158.1875 178.550781 158.636719 178.570312 159.085938 C 178.652344 160.96875 178.746094 162.851562 178.792969 164.734375 C 178.800781 164.875 178.792969 165.078125 178.609375 165.078125 C 175.328125 165.101562 172.042969 165.082031 168.761719 165.089844 C 168.585938 165.078125 168.289062 165.160156 168.253906 164.917969 Z M 179.222656 176.582031 C 176.230469 176.648438 173.226562 176.597656 170.234375 176.609375 C 169.972656 176.574219 170.035156 176.214844 169.96875 176.019531 C 169.703125 174.34375 169.4375 172.667969 169.175781 170.988281 C 169.070312 170.296875 168.96875 169.605469 168.867188 168.914062 C 168.847656 168.824219 168.855469 168.683594 168.964844 168.675781 C 170.613281 168.625 172.265625 168.671875 173.914062 168.65625 C 173.914062 168.652344 173.914062 168.648438 173.914062 168.640625 C 175.410156 168.640625 176.910156 168.640625 178.410156 168.640625 C 179.035156 168.640625 178.972656 168.609375 179.003906 169.199219 C 179.023438 169.648438 179.042969 170.101562 179.0625 170.550781 C 179.128906 171.945312 179.21875 173.34375 179.261719 174.742188 C 179.226562 174.996094 179.46875 176.605469 179.222656 176.582031 Z M 192.925781 170.191406 C 192.84375 172.273438 192.707031 174.347656 192.640625 176.429688 C 192.636719 176.609375 192.433594 176.613281 192.289062 176.609375 C 189.476562 176.613281 186.664062 176.613281 183.847656 176.613281 C 183.597656 176.613281 183.347656 176.613281 183.097656 176.613281 C 182.746094 176.609375 182.742188 176.605469 182.726562 176.246094 C 182.695312 175.582031 182.671875 174.917969 182.644531 174.25 C 182.566406 172.453125 182.46875 170.660156 182.449219 168.859375 C 182.445312 168.710938 182.503906 168.65625 182.660156 168.652344 C 184.34375 168.644531 186.023438 168.652344 187.707031 168.648438 C 187.707031 168.652344 187.707031 168.65625 187.707031 168.664062 C 189.402344 168.660156 191.101562 168.628906 192.800781 168.644531 C 192.90625 168.648438 192.976562 168.726562 192.972656 168.84375 C 192.957031 169.292969 192.941406 169.742188 192.925781 170.191406 Z M 193.632812 157.636719 C 193.519531 159.679688 193.449219 161.730469 193.304688 163.773438 C 193.285156 164.089844 193.28125 164.40625 193.265625 164.722656 C 193.273438 164.976562 193.214844 165.105469 192.945312 165.085938 C 189.429688 165.082031 185.914062 165.105469 182.398438 165.082031 C 182.316406 165.078125 182.25 165.011719 182.246094 164.921875 C 182.105469 162.726562 182.070312 160.527344 181.984375 158.332031 C 181.976562 158.066406 181.972656 157.796875 181.972656 157.53125 C 181.972656 157.472656 182.039062 157.402344 182.097656 157.402344 C 183.996094 157.375 185.894531 157.398438 187.792969 157.390625 C 189.675781 157.398438 191.558594 157.378906 193.441406 157.398438 C 193.578125 157.40625 193.640625 157.488281 193.632812 157.636719 Z M 194.417969 142.710938 C 194.398438 143.195312 194.394531 143.679688 194.375 144.160156 C 194.242188 147.371094 194.089844 150.589844 193.863281 153.792969 C 193.796875 153.929688 193.644531 153.914062 193.515625 153.917969 C 190.117188 153.90625 186.71875 153.917969 183.316406 153.914062 C 182.933594 153.914062 182.550781 153.910156 182.167969 153.90625 C 182.035156 153.898438 181.824219 153.929688 181.789062 153.761719 C 181.714844 152.53125 181.710938 151.292969 181.632812 150.066406 C 181.527344 147.519531 181.382812 144.972656 181.363281 142.421875 C 181.367188 142.363281 181.4375 142.300781 181.5 142.300781 C 183.628906 142.265625 185.765625 142.292969 187.898438 142.285156 C 189.929688 142.289062 191.964844 142.28125 193.996094 142.289062 C 194.410156 142.300781 194.429688 142.324219 194.417969 142.710938 Z M 206.746094 168.820312 C 206.316406 171.265625 205.890625 173.707031 205.457031 176.152344 C 205.414062 176.292969 205.421875 176.515625 205.261719 176.582031 C 202.351562 176.636719 199.429688 176.589844 196.515625 176.605469 C 196.042969 176.605469 196.035156 176.601562 196.050781 176.144531 C 196.117188 174.679688 196.199219 173.214844 196.273438 171.75 C 196.339844 170.753906 196.367188 169.75 196.464844 168.757812 C 196.480469 168.722656 196.53125 168.671875 196.570312 168.667969 C 198.25 168.621094 199.933594 168.664062 201.617188 168.652344 C 201.617188 168.65625 201.617188 168.660156 201.617188 168.667969 C 203.300781 168.671875 204.984375 168.597656 206.664062 168.660156 C 206.71875 168.675781 206.761719 168.765625 206.746094 168.820312 Z M 208.761719 157.75 C 208.484375 159.445312 208.164062 161.128906 207.863281 162.816406 C 207.722656 163.535156 207.628906 164.265625 207.453125 164.972656 C 207.441406 165.011719 207.386719 165.058594 207.347656 165.0625 C 205.601562 165.117188 203.851562 165.066406 202.101562 165.082031 C 202.101562 165.085938 202.101562 165.089844 202.101562 165.09375 C 200.371094 165.089844 198.636719 165.097656 196.902344 165.089844 C 196.765625 165.085938 196.703125 165.015625 196.703125 164.863281 C 196.753906 163.617188 196.828125 162.371094 196.886719 161.121094 C 196.945312 159.957031 197 158.792969 197.0625 157.628906 C 197.070312 157.453125 197.128906 157.402344 197.316406 157.398438 C 201.109375 157.425781 204.917969 157.335938 208.703125 157.4375 C 208.808594 157.492188 208.765625 157.652344 208.761719 157.75 Z M 216.152344 168.851562 C 215.722656 170.371094 215.289062 171.890625 214.863281 173.410156 C 214.28125 175.546875 212.167969 176.773438 210.023438 176.589844 C 210.023438 176.59375 210.023438 176.601562 210.023438 176.605469 C 209.816406 176.570312 209.039062 176.699219 208.976562 176.496094 C 209.246094 174.34375 209.710938 172.199219 210.054688 170.054688 C 210.128906 169.644531 210.203125 169.234375 210.277344 168.828125 C 210.296875 168.722656 210.375 168.652344 210.484375 168.644531 C 212.328125 168.644531 214.175781 168.597656 216.023438 168.640625 C 216.140625 168.648438 216.1875 168.726562 216.152344 168.851562 Z M 219.394531 157.71875 C 218.707031 160.101562 218.042969 162.488281 217.363281 164.871094 C 217.316406 165.039062 217.257812 165.082031 217.078125 165.089844 C 215.164062 165.09375 213.253906 165.09375 211.335938 165.09375 C 211.238281 165.082031 211.070312 165.121094 211.027344 165.003906 C 211.058594 164.410156 211.210938 163.820312 211.296875 163.230469 C 211.554688 161.742188 211.824219 160.25 212.097656 158.761719 C 212.183594 158.507812 212.226562 157.449219 212.472656 157.410156 C 213.617188 157.359375 214.769531 157.402344 215.914062 157.390625 C 215.914062 157.390625 215.914062 157.390625 215.914062 157.394531 C 216.996094 157.394531 218.078125 157.390625 219.160156 157.398438 C 219.414062 157.398438 219.476562 157.441406 219.394531 157.71875 Z M 223.734375 142.578125 C 222.71875 146.304688 221.621094 150.003906 220.566406 153.71875 C 220.527344 153.855469 220.453125 153.90625 220.3125 153.910156 C 217.914062 153.902344 215.515625 153.933594 213.121094 153.886719 C 213.085938 153.882812 213.03125 153.816406 213.039062 153.777344 C 213.472656 151.285156 213.925781 148.796875 214.398438 146.3125 C 214.628906 145.050781 214.855469 143.792969 215.082031 142.53125 C 215.117188 142.359375 215.179688 142.292969 215.347656 142.289062 C 216.710938 142.28125 218.078125 142.289062 219.441406 142.285156 C 219.441406 142.285156 219.441406 142.28125 219.441406 142.28125 C 220.808594 142.285156 222.171875 142.273438 223.539062 142.285156 C 223.746094 142.292969 223.789062 142.359375 223.734375 142.578125 Z M 223.734375 142.578125 " fill-opacity="1" fill-rule="nonzero"/></g><g clip-path="url(#c23a2ef206)"><path fill="#d9d9d9" d="M 158.71875 197.625 C 155.128906 196.523438 151.066406 198.488281 149.632812 201.941406 C 147.488281 206.613281 151.414062 212.316406 156.480469 212.195312 C 165.238281 212.269531 167.121094 200.199219 158.71875 197.625 Z M 157.257812 207.902344 C 152.59375 208.550781 151.96875 201.671875 156.796875 201.652344 C 160.542969 201.738281 160.929688 207.183594 157.257812 207.902344 Z M 157.257812 207.902344 " fill-opacity="1" fill-rule="nonzero"/></g><g clip-path="url(#69190403c5)"><path fill="#d9d9d9" d="M 212.121094 197.765625 C 204.222656 200.800781 206.210938 212.113281 214.695312 212.1875 C 218.734375 212.28125 222.246094 208.785156 222.214844 204.742188 C 222.300781 199.671875 216.8125 195.984375 212.121094 197.765625 Z M 215.589844 207.847656 C 210.882812 208.886719 209.832031 201.816406 214.761719 201.652344 C 218.425781 201.621094 219.078125 206.871094 215.589844 207.847656 Z M 215.589844 207.847656 " fill-opacity="1" fill-rule="nonzero"/></g><g fill="#38b6ff" fill-opacity="0.4"><g transform="translate(89.289476, 276.133751)"><g><path d="M 6.328125 -23.546875 L 18.171875 -23.546875 C 19.421875 -23.546875 20.507812 -23.382812 21.4375 -23.0625 C 22.375 -22.738281 23.148438 -22.304688 23.765625 -21.765625 C 24.378906 -21.222656 24.835938 -20.613281 25.140625 -19.9375 C 25.441406 -19.269531 25.59375 -18.585938 25.59375 -17.890625 C 25.59375 -17.285156 25.523438 -16.75 25.390625 -16.28125 C 25.265625 -15.8125 25.09375 -15.390625 24.875 -15.015625 C 24.664062 -14.648438 24.425781 -14.332031 24.15625 -14.0625 C 23.882812 -13.789062 23.601562 -13.554688 23.3125 -13.359375 C 22.632812 -12.910156 21.882812 -12.59375 21.0625 -12.40625 L 21.0625 -12.25 C 21.707031 -12 22.300781 -11.660156 22.84375 -11.234375 C 23.289062 -10.859375 23.695312 -10.359375 24.0625 -9.734375 C 24.4375 -9.117188 24.625 -8.332031 24.625 -7.375 C 24.625 -6.3125 24.425781 -5.332031 24.03125 -4.4375 C 23.644531 -3.539062 23.066406 -2.765625 22.296875 -2.109375 C 21.535156 -1.460938 20.609375 -0.945312 19.515625 -0.5625 C 18.429688 -0.1875 17.195312 0 15.8125 0 L 2.1875 0 Z M 15.140625 -5.046875 C 16.148438 -5.046875 16.90625 -5.285156 17.40625 -5.765625 C 17.914062 -6.253906 18.171875 -6.851562 18.171875 -7.5625 C 18.171875 -8.144531 17.914062 -8.65625 17.40625 -9.09375 C 16.90625 -9.53125 16.148438 -9.75 15.140625 -9.75 L 10.125 -9.75 L 9.28125 -5.046875 Z M 16.484375 -14.46875 C 17.265625 -14.46875 17.867188 -14.671875 18.296875 -15.078125 C 18.722656 -15.492188 18.9375 -16.019531 18.9375 -16.65625 C 18.9375 -17.164062 18.722656 -17.597656 18.296875 -17.953125 C 17.867188 -18.316406 17.265625 -18.5 16.484375 -18.5 L 11.671875 -18.5 L 10.96875 -14.46875 Z M 16.484375 -14.46875 "/></g></g></g><g fill="#38b6ff" fill-opacity="0.4"><g transform="translate(113.850006, 276.133751)"><g><path d="M 4.78125 -17.5 L 10.5 -17.5 L 7.40625 0 L 1.6875 0 Z M 8.34375 -19.34375 C 7.40625 -19.34375 6.679688 -19.578125 6.171875 -20.046875 C 5.671875 -20.515625 5.421875 -21.117188 5.421875 -21.859375 C 5.421875 -22.804688 5.71875 -23.578125 6.3125 -24.171875 C 6.90625 -24.765625 7.660156 -25.0625 8.578125 -25.0625 C 9.515625 -25.0625 10.234375 -24.828125 10.734375 -24.359375 C 11.242188 -23.890625 11.5 -23.285156 11.5 -22.546875 C 11.5 -21.597656 11.203125 -20.828125 10.609375 -20.234375 C 10.015625 -19.640625 9.257812 -19.34375 8.34375 -19.34375 Z M 8.34375 -19.34375 "/></g></g></g><g fill="#38b6ff" fill-opacity="0.4"><g transform="translate(122.934039, 276.133751)"><g><path d="M 5.8125 -23.546875 L 11.53125 -23.546875 L 8.203125 -4.546875 L 12.078125 -4.546875 L 11.265625 0 L 1.6875 0 Z M 5.8125 -23.546875 "/></g></g></g><g fill="#38b6ff" fill-opacity="0.4"><g transform="translate(134.541415, 276.133751)"><g><path d="M 5.8125 -23.546875 L 11.53125 -23.546875 L 8.203125 -4.546875 L 12.078125 -4.546875 L 11.265625 0 L 1.6875 0 Z M 5.8125 -23.546875 "/></g></g></g><g fill="#38b6ff" fill-opacity="0.4"><g transform="translate(146.14879, 276.133751)"><g><path d="M 4.78125 -17.5 L 10.5 -17.5 L 7.40625 0 L 1.6875 0 Z M 8.34375 -19.34375 C 7.40625 -19.34375 6.679688 -19.578125 6.171875 -20.046875 C 5.671875 -20.515625 5.421875 -21.117188 5.421875 -21.859375 C 5.421875 -22.804688 5.71875 -23.578125 6.3125 -24.171875 C 6.90625 -24.765625 7.660156 -25.0625 8.578125 -25.0625 C 9.515625 -25.0625 10.234375 -24.828125 10.734375 -24.359375 C 11.242188 -23.890625 11.5 -23.285156 11.5 -22.546875 C 11.5 -21.597656 11.203125 -20.828125 10.609375 -20.234375 C 10.015625 -19.640625 9.257812 -19.34375 8.34375 -19.34375 Z M 8.34375 -19.34375 "/></g></g></g><g fill="#38b6ff" fill-opacity="0.4"><g transform="translate(155.232824, 276.133751)"><g><path d="M 4.78125 -17.5 L 10.5 -17.5 L 10.125 -15.3125 L 10.390625 -15.3125 C 10.796875 -15.800781 11.257812 -16.25 11.78125 -16.65625 C 12.226562 -16.988281 12.765625 -17.296875 13.390625 -17.578125 C 14.015625 -17.859375 14.734375 -18 15.546875 -18 C 16.710938 -18 17.703125 -17.800781 18.515625 -17.40625 C 19.335938 -17.007812 19.988281 -16.457031 20.46875 -15.75 C 20.945312 -15.050781 21.257812 -14.222656 21.40625 -13.265625 C 21.550781 -12.316406 21.523438 -11.289062 21.328125 -10.1875 L 19.515625 0 L 13.796875 0 L 15.546875 -9.859375 C 15.703125 -10.847656 15.5625 -11.675781 15.125 -12.34375 C 14.6875 -13.019531 13.90625 -13.359375 12.78125 -13.359375 C 11.925781 -13.359375 11.140625 -13.03125 10.421875 -12.375 C 9.710938 -11.726562 9.265625 -10.851562 9.078125 -9.75 L 7.40625 0 L 1.6875 0 Z M 4.78125 -17.5 "/></g></g></g><g fill="#38b6ff" fill-opacity="0.4"><g transform="translate(176.260666, 276.133751)"><g><path d="M 2.359375 6.359375 L 3.15625 1.84375 L 14.09375 1.84375 L 14.875 -2.515625 L 14.59375 -2.515625 C 14.21875 -2.066406 13.769531 -1.675781 13.25 -1.34375 C 12.800781 -1.03125 12.265625 -0.753906 11.640625 -0.515625 C 11.015625 -0.285156 10.296875 -0.171875 9.484375 -0.171875 C 8.492188 -0.171875 7.578125 -0.351562 6.734375 -0.71875 C 5.898438 -1.09375 5.175781 -1.609375 4.5625 -2.265625 C 3.945312 -2.929688 3.460938 -3.726562 3.109375 -4.65625 C 2.765625 -5.59375 2.59375 -6.628906 2.59375 -7.765625 C 2.59375 -9.316406 2.84375 -10.722656 3.34375 -11.984375 C 3.851562 -13.253906 4.515625 -14.332031 5.328125 -15.21875 C 6.148438 -16.101562 7.082031 -16.785156 8.125 -17.265625 C 9.164062 -17.753906 10.222656 -18 11.296875 -18 C 12.359375 -18 13.226562 -17.84375 13.90625 -17.53125 C 14.59375 -17.21875 15.148438 -16.867188 15.578125 -16.484375 C 16.066406 -16.035156 16.445312 -15.53125 16.71875 -14.96875 L 17.0625 -14.96875 L 17.5 -17.5 L 23.21875 -17.5 L 19 6.390625 Z M 11.9375 -4.875 C 12.476562 -4.875 12.992188 -4.976562 13.484375 -5.1875 C 13.984375 -5.40625 14.414062 -5.707031 14.78125 -6.09375 C 15.15625 -6.488281 15.453125 -6.976562 15.671875 -7.5625 C 15.898438 -8.144531 16.015625 -8.804688 16.015625 -9.546875 C 16.015625 -10.609375 15.695312 -11.441406 15.0625 -12.046875 C 14.4375 -12.648438 13.597656 -12.953125 12.546875 -12.953125 C 12.003906 -12.953125 11.488281 -12.84375 11 -12.625 C 10.507812 -12.414062 10.078125 -12.113281 9.703125 -11.71875 C 9.335938 -11.332031 9.039062 -10.847656 8.8125 -10.265625 C 8.59375 -9.679688 8.484375 -9.019531 8.484375 -8.28125 C 8.484375 -7.21875 8.796875 -6.382812 9.421875 -5.78125 C 10.046875 -5.175781 10.882812 -4.875 11.9375 -4.875 Z M 11.9375 -4.875 "/></g></g></g><g fill="#38b6ff" fill-opacity="1"><g transform="translate(89.289476, 276.133751)"><g><path d="M 6.328125 -23.546875 L 18.171875 -23.546875 C 19.421875 -23.546875 20.507812 -23.382812 21.4375 -23.0625 C 22.375 -22.738281 23.148438 -22.304688 23.765625 -21.765625 C 24.378906 -21.222656 24.835938 -20.613281 25.140625 -19.9375 C 25.441406 -19.269531 25.59375 -18.585938 25.59375 -17.890625 C 25.59375 -17.285156 25.523438 -16.75 25.390625 -16.28125 C 25.265625 -15.8125 25.09375 -15.390625 24.875 -15.015625 C 24.664062 -14.648438 24.425781 -14.332031 24.15625 -14.0625 C 23.882812 -13.789062 23.601562 -13.554688 23.3125 -13.359375 C 22.632812 -12.910156 21.882812 -12.59375 21.0625 -12.40625 L 21.0625 -12.25 C 21.707031 -12 22.300781 -11.660156 22.84375 -11.234375 C 23.289062 -10.859375 23.695312 -10.359375 24.0625 -9.734375 C 24.4375 -9.117188 24.625 -8.332031 24.625 -7.375 C 24.625 -6.3125 24.425781 -5.332031 24.03125 -4.4375 C 23.644531 -3.539062 23.066406 -2.765625 22.296875 -2.109375 C 21.535156 -1.460938 20.609375 -0.945312 19.515625 -0.5625 C 18.429688 -0.1875 17.195312 0 15.8125 0 L 2.1875 0 Z M 15.140625 -5.046875 C 16.148438 -5.046875 16.90625 -5.285156 17.40625 -5.765625 C 17.914062 -6.253906 18.171875 -6.851562 18.171875 -7.5625 C 18.171875 -8.144531 17.914062 -8.65625 17.40625 -9.09375 C 16.90625 -9.53125 16.148438 -9.75 15.140625 -9.75 L 10.125 -9.75 L 9.28125 -5.046875 Z M 16.484375 -14.46875 C 17.265625 -14.46875 17.867188 -14.671875 18.296875 -15.078125 C 18.722656 -15.492188 18.9375 -16.019531 18.9375 -16.65625 C 18.9375 -17.164062 18.722656 -17.597656 18.296875 -17.953125 C 17.867188 -18.316406 17.265625 -18.5 16.484375 -18.5 L 11.671875 -18.5 L 10.96875 -14.46875 Z M 16.484375 -14.46875 "/></g></g></g><g fill="#38b6ff" fill-opacity="1"><g transform="translate(113.850006, 276.133751)"><g><path d="M 4.78125 -17.5 L 10.5 -17.5 L 7.40625 0 L 1.6875 0 Z M 8.34375 -19.34375 C 7.40625 -19.34375 6.679688 -19.578125 6.171875 -20.046875 C 5.671875 -20.515625 5.421875 -21.117188 5.421875 -21.859375 C 5.421875 -22.804688 5.71875 -23.578125 6.3125 -24.171875 C 6.90625 -24.765625 7.660156 -25.0625 8.578125 -25.0625 C 9.515625 -25.0625 10.234375 -24.828125 10.734375 -24.359375 C 11.242188 -23.890625 11.5 -23.285156 11.5 -22.546875 C 11.5 -21.597656 11.203125 -20.828125 10.609375 -20.234375 C 10.015625 -19.640625 9.257812 -19.34375 8.34375 -19.34375 Z M 8.34375 -19.34375 "/></g></g></g><g fill="#38b6ff" fill-opacity="1"><g transform="translate(122.934039, 276.133751)"><g><path d="M 5.8125 -23.546875 L 11.53125 -23.546875 L 8.203125 -4.546875 L 12.078125 -4.546875 L 11.265625 0 L 1.6875 0 Z M 5.8125 -23.546875 "/></g></g></g><g fill="#38b6ff" fill-opacity="1"><g transform="translate(134.541415, 276.133751)"><g><path d="M 5.8125 -23.546875 L 11.53125 -23.546875 L 8.203125 -4.546875 L 12.078125 -4.546875 L 11.265625 0 L 1.6875 0 Z M 5.8125 -23.546875 "/></g></g></g><g fill="#38b6ff" fill-opacity="1"><g transform="translate(146.14879, 276.133751)"><g><path d="M 4.78125 -17.5 L 10.5 -17.5 L 7.40625 0 L 1.6875 0 Z M 8.34375 -19.34375 C 7.40625 -19.34375 6.679688 -19.578125 6.171875 -20.046875 C 5.671875 -20.515625 5.421875 -21.117188 5.421875 -21.859375 C 5.421875 -22.804688 5.71875 -23.578125 6.3125 -24.171875 C 6.90625 -24.765625 7.660156 -25.0625 8.578125 -25.0625 C 9.515625 -25.0625 10.234375 -24.828125 10.734375 -24.359375 C 11.242188 -23.890625 11.5 -23.285156 11.5 -22.546875 C 11.5 -21.597656 11.203125 -20.828125 10.609375 -20.234375 C 10.015625 -19.640625 9.257812 -19.34375 8.34375 -19.34375 Z M 8.34375 -19.34375 "/></g></g></g><g fill="#38b6ff" fill-opacity="1"><g transform="translate(155.232824, 276.133751)"><g><path d="M 4.78125 -17.5 L 10.5 -17.5 L 10.125 -15.3125 L 10.390625 -15.3125 C 10.796875 -15.800781 11.257812 -16.25 11.78125 -16.65625 C 12.226562 -16.988281 12.765625 -17.296875 13.390625 -17.578125 C 14.015625 -17.859375 14.734375 -18 15.546875 -18 C 16.710938 -18 17.703125 -17.800781 18.515625 -17.40625 C 19.335938 -17.007812 19.988281 -16.457031 20.46875 -15.75 C 20.945312 -15.050781 21.257812 -14.222656 21.40625 -13.265625 C 21.550781 -12.316406 21.523438 -11.289062 21.328125 -10.1875 L 19.515625 0 L 13.796875 0 L 15.546875 -9.859375 C 15.703125 -10.847656 15.5625 -11.675781 15.125 -12.34375 C 14.6875 -13.019531 13.90625 -13.359375 12.78125 -13.359375 C 11.925781 -13.359375 11.140625 -13.03125 10.421875 -12.375 C 9.710938 -11.726562 9.265625 -10.851562 9.078125 -9.75 L 7.40625 0 L 1.6875 0 Z M 4.78125 -17.5 "/></g></g></g><g fill="#38b6ff" fill-opacity="1"><g transform="translate(176.260666, 276.133751)"><g><path d="M 2.359375 6.359375 L 3.15625 1.84375 L 14.09375 1.84375 L 14.875 -2.515625 L 14.59375 -2.515625 C 14.21875 -2.066406 13.769531 -1.675781 13.25 -1.34375 C 12.800781 -1.03125 12.265625 -0.753906 11.640625 -0.515625 C 11.015625 -0.285156 10.296875 -0.171875 9.484375 -0.171875 C 8.492188 -0.171875 7.578125 -0.351562 6.734375 -0.71875 C 5.898438 -1.09375 5.175781 -1.609375 4.5625 -2.265625 C 3.945312 -2.929688 3.460938 -3.726562 3.109375 -4.65625 C 2.765625 -5.59375 2.59375 -6.628906 2.59375 -7.765625 C 2.59375 -9.316406 2.84375 -10.722656 3.34375 -11.984375 C 3.851562 -13.253906 4.515625 -14.332031 5.328125 -15.21875 C 6.148438 -16.101562 7.082031 -16.785156 8.125 -17.265625 C 9.164062 -17.753906 10.222656 -18 11.296875 -18 C 12.359375 -18 13.226562 -17.84375 13.90625 -17.53125 C 14.59375 -17.21875 15.148438 -16.867188 15.578125 -16.484375 C 16.066406 -16.035156 16.445312 -15.53125 16.71875 -14.96875 L 17.0625 -14.96875 L 17.5 -17.5 L 23.21875 -17.5 L 19 6.390625 Z M 11.9375 -4.875 C 12.476562 -4.875 12.992188 -4.976562 13.484375 -5.1875 C 13.984375 -5.40625 14.414062 -5.707031 14.78125 -6.09375 C 15.15625 -6.488281 15.453125 -6.976562 15.671875 -7.5625 C 15.898438 -8.144531 16.015625 -8.804688 16.015625 -9.546875 C 16.015625 -10.609375 15.695312 -11.441406 15.0625 -12.046875 C 14.4375 -12.648438 13.597656 -12.953125 12.546875 -12.953125 C 12.003906 -12.953125 11.488281 -12.84375 11 -12.625 C 10.507812 -12.414062 10.078125 -12.113281 9.703125 -11.71875 C 9.335938 -11.332031 9.039062 -10.847656 8.8125 -10.265625 C 8.59375 -9.679688 8.484375 -9.019531 8.484375 -8.28125 C 8.484375 -7.21875 8.796875 -6.382812 9.421875 -5.78125 C 10.046875 -5.175781 10.882812 -4.875 11.9375 -4.875 Z M 11.9375 -4.875 "/></g></g></g><g fill="#a6a6a6" fill-opacity="1"><g transform="translate(202.736593, 276.133751)"><g><path d="M 6.328125 -23.546875 L 12.546875 -23.546875 L 11.03125 -14.796875 L 13.5625 -14.796875 L 20.796875 -23.546875 L 28.015625 -23.546875 L 18.671875 -12.453125 L 24.390625 0 L 17.5 0 L 13.21875 -9.078125 L 10.03125 -9.078125 L 8.40625 0 L 2.1875 0 Z M 6.328125 -23.546875 "/></g></g></g><g fill="#a6a6a6" fill-opacity="1"><g transform="translate(226.960678, 276.133751)"><g><path d="M -3.15625 1.84375 L 1.375 1.84375 L 4.78125 -17.5 L 10.5 -17.5 L 6.296875 6.390625 L -3.96875 6.390625 Z M 8.34375 -19.34375 C 7.40625 -19.34375 6.679688 -19.578125 6.171875 -20.046875 C 5.671875 -20.515625 5.421875 -21.117188 5.421875 -21.859375 C 5.421875 -22.804688 5.71875 -23.578125 6.3125 -24.171875 C 6.90625 -24.765625 7.660156 -25.0625 8.578125 -25.0625 C 9.515625 -25.0625 10.234375 -24.828125 10.734375 -24.359375 C 11.242188 -23.890625 11.5 -23.285156 11.5 -22.546875 C 11.5 -21.597656 11.203125 -20.828125 10.609375 -20.234375 C 10.015625 -19.640625 9.257812 -19.34375 8.34375 -19.34375 Z M 8.34375 -19.34375 "/></g></g></g><g fill="#a6a6a6" fill-opacity="1"><g transform="translate(236.044711, 276.133751)"><g><path d="M 11.46875 0.5 C 10.101562 0.5 8.859375 0.273438 7.734375 -0.171875 C 6.617188 -0.617188 5.660156 -1.226562 4.859375 -2 C 4.066406 -2.769531 3.453125 -3.664062 3.015625 -4.6875 C 2.578125 -5.707031 2.359375 -6.800781 2.359375 -7.96875 C 2.359375 -9.34375 2.632812 -10.640625 3.1875 -11.859375 C 3.75 -13.078125 4.503906 -14.140625 5.453125 -15.046875 C 6.410156 -15.960938 7.523438 -16.679688 8.796875 -17.203125 C 10.066406 -17.734375 11.40625 -18 12.8125 -18 C 14.1875 -18 15.429688 -17.773438 16.546875 -17.328125 C 17.671875 -16.878906 18.628906 -16.265625 19.421875 -15.484375 C 20.222656 -14.710938 20.84375 -13.816406 21.28125 -12.796875 C 21.71875 -11.773438 21.9375 -10.679688 21.9375 -9.515625 C 21.9375 -8.148438 21.65625 -6.851562 21.09375 -5.625 C 20.53125 -4.40625 19.769531 -3.34375 18.8125 -2.4375 C 17.863281 -1.53125 16.753906 -0.8125 15.484375 -0.28125 C 14.222656 0.238281 12.882812 0.5 11.46875 0.5 Z M 11.78125 -4.375 C 12.3125 -4.375 12.832031 -4.488281 13.34375 -4.71875 C 13.863281 -4.957031 14.328125 -5.296875 14.734375 -5.734375 C 15.140625 -6.171875 15.460938 -6.703125 15.703125 -7.328125 C 15.953125 -7.960938 16.078125 -8.671875 16.078125 -9.453125 C 16.078125 -10.578125 15.742188 -11.46875 15.078125 -12.125 C 14.421875 -12.789062 13.566406 -13.125 12.515625 -13.125 C 11.972656 -13.125 11.441406 -13.003906 10.921875 -12.765625 C 10.410156 -12.523438 9.953125 -12.1875 9.546875 -11.75 C 9.148438 -11.3125 8.828125 -10.78125 8.578125 -10.15625 C 8.328125 -9.53125 8.203125 -8.828125 8.203125 -8.046875 C 8.203125 -6.921875 8.53125 -6.023438 9.1875 -5.359375 C 9.851562 -4.703125 10.71875 -4.375 11.78125 -4.375 Z M 11.78125 -4.375 "/></g></g></g><g fill="#a6a6a6" fill-opacity="1"><g transform="translate(257.240781, 276.133751)"><g><path d="M 4.75 -17.5 L 10.46875 -17.5 L 10.09375 -15.3125 L 10.359375 -15.3125 C 10.765625 -15.800781 11.238281 -16.25 11.78125 -16.65625 C 12.226562 -16.988281 12.769531 -17.296875 13.40625 -17.578125 C 14.039062 -17.859375 14.753906 -18 15.546875 -18 C 16.503906 -18 17.398438 -17.8125 18.234375 -17.4375 C 19.066406 -17.070312 19.785156 -16.550781 20.390625 -15.875 C 20.992188 -15.207031 21.460938 -14.394531 21.796875 -13.4375 C 22.128906 -12.488281 22.296875 -11.429688 22.296875 -10.265625 C 22.296875 -8.578125 22.035156 -7.066406 21.515625 -5.734375 C 21.003906 -4.398438 20.335938 -3.269531 19.515625 -2.34375 C 18.703125 -1.425781 17.769531 -0.722656 16.71875 -0.234375 C 15.664062 0.253906 14.601562 0.5 13.53125 0.5 C 12.519531 0.5 11.671875 0.335938 10.984375 0.015625 C 10.296875 -0.304688 9.742188 -0.671875 9.328125 -1.078125 C 8.921875 -1.484375 8.625 -1.851562 8.4375 -2.1875 C 8.257812 -2.519531 8.171875 -2.6875 8.171875 -2.6875 L 7.84375 -2.6875 L 6.25 6.390625 L 0.53125 6.390625 Z M 12.28125 -4.375 C 12.820312 -4.375 13.335938 -4.484375 13.828125 -4.703125 C 14.316406 -4.929688 14.757812 -5.265625 15.15625 -5.703125 C 15.550781 -6.140625 15.859375 -6.679688 16.078125 -7.328125 C 16.304688 -7.984375 16.421875 -8.75 16.421875 -9.625 C 16.421875 -10.769531 16.109375 -11.640625 15.484375 -12.234375 C 14.867188 -12.828125 14.046875 -13.125 13.015625 -13.125 C 12.484375 -13.125 11.96875 -13.007812 11.46875 -12.78125 C 10.976562 -12.5625 10.535156 -12.234375 10.140625 -11.796875 C 9.742188 -11.359375 9.429688 -10.8125 9.203125 -10.15625 C 8.984375 -9.507812 8.875 -8.75 8.875 -7.875 C 8.875 -6.726562 9.179688 -5.859375 9.796875 -5.265625 C 10.421875 -4.671875 11.25 -4.375 12.28125 -4.375 Z M 12.28125 -4.375 "/></g></g></g></svg>